STARTFONT 2.1
FONT -SGI-Screen-Bold-R-Normal--8-80-72-72-M-70-ISO8859-1
SIZE 8 72 72
FONTBOUNDINGBOX 7 8 0 -1

STARTPROPERTIES 25
_DEC_DEVICE_FONTNAMES "FM=Screen-Bold"
FONTNAME_REGISTRY ""
FAMILY_NAME "Screen"
FOUNDRY "SGI"
WEIGHT_NAME "Bold"
SLANT "R"
SETWIDTH_NAME "Normal"
ADD_STYLE_NAME ""
PIXEL_SIZE 8
POINT_SIZE 80
RESOLUTION_X 72
RESOLUTION_Y 72
SPACING "M"
AVERAGE_WIDTH 70
CHARSET_REGISTRY "ISO8859"
CHARSET_ENCODING "1"
CHARSET_COLLECTIONS "ASCII ISO8859-1"
FULL_NAME "Screen Bold"
CAP_HEIGHT 6
X_HEIGHT 5
WEIGHT 10
QUAD_WIDTH 7
DEFAULT_CHAR 0
FONT_DESCENT 1
FONT_ASCENT 7
ENDPROPERTIES

CHARS 190

STARTCHAR space
ENCODING 32
SWIDTH 875 0
DWIDTH 7 0
BBX 7 8 0 -1
BITMAP
00
00
00
00
00
00
00
00
ENDCHAR

STARTCHAR exclam
ENCODING 33
SWIDTH 875 0
DWIDTH 7 0
BBX 7 8 0 -1
BITMAP
00
30
30
30
30
00
30
00
ENDCHAR

STARTCHAR quotedbl
ENCODING 34
SWIDTH 875 0
DWIDTH 7 0
BBX 7 8 0 -1
BITMAP
00
6C
6C
6C
00
00
00
00
ENDCHAR

STARTCHAR numbersign
ENCODING 35
SWIDTH 875 0
DWIDTH 7 0
BBX 7 8 0 -1
BITMAP
00
6C
FE
6C
6C
FE
6C
00
ENDCHAR

STARTCHAR dollar
ENCODING 36
SWIDTH 875 0
DWIDTH 7 0
BBX 7 8 0 -1
BITMAP
00
30
7C
B0
78
34
F8
30
ENDCHAR

STARTCHAR percent
ENCODING 37
SWIDTH 875 0
DWIDTH 7 0
BBX 7 8 0 -1
BITMAP
00
66
AC
D8
36
6A
CC
00
ENDCHAR

STARTCHAR ampersand
ENCODING 38
SWIDTH 875 0
DWIDTH 7 0
BBX 7 8 0 -1
BITMAP
00
70
D8
70
DE
DC
76
00
ENDCHAR

STARTCHAR quoteright
ENCODING 39
SWIDTH 875 0
DWIDTH 7 0
BBX 7 8 0 -1
BITMAP
18
18
30
00
00
00
00
00
ENDCHAR

STARTCHAR parenleft
ENCODING 40
SWIDTH 875 0
DWIDTH 7 0
BBX 7 8 0 -1
BITMAP
0C
18
30
30
30
30
18
0C
ENDCHAR

STARTCHAR parenright
ENCODING 41
SWIDTH 875 0
DWIDTH 7 0
BBX 7 8 0 -1
BITMAP
60
30
18
18
18
18
30
60
ENDCHAR

STARTCHAR asterisk
ENCODING 42
SWIDTH 875 0
DWIDTH 7 0
BBX 7 8 0 -1
BITMAP
00
30
B4
78
78
B4
30
00
ENDCHAR

STARTCHAR plus
ENCODING 43
SWIDTH 875 0
DWIDTH 7 0
BBX 7 8 0 -1
BITMAP
00
00
30
30
FC
30
30
00
ENDCHAR

STARTCHAR comma
ENCODING 44
SWIDTH 875 0
DWIDTH 7 0
BBX 7 8 0 -1
BITMAP
00
00
00
00
00
18
18
30
ENDCHAR

STARTCHAR minus
ENCODING 45
SWIDTH 875 0
DWIDTH 7 0
BBX 7 8 0 -1
BITMAP
00
00
00
7C
7C
00
00
00
ENDCHAR

STARTCHAR period
ENCODING 46
SWIDTH 875 0
DWIDTH 7 0
BBX 7 8 0 -1
BITMAP
00
00
00
00
00
30
30
00
ENDCHAR

STARTCHAR slash
ENCODING 47
SWIDTH 875 0
DWIDTH 7 0
BBX 7 8 0 -1
BITMAP
0C
0C
18
18
30
30
60
60
ENDCHAR

STARTCHAR zero
ENCODING 48
SWIDTH 875 0
DWIDTH 7 0
BBX 7 8 0 -1
BITMAP
00
3C
6C
6C
6C
6C
78
00
ENDCHAR

STARTCHAR one
ENCODING 49
SWIDTH 875 0
DWIDTH 7 0
BBX 7 8 0 -1
BITMAP
00
30
70
30
30
30
78
00
ENDCHAR

STARTCHAR two
ENCODING 50
SWIDTH 875 0
DWIDTH 7 0
BBX 7 8 0 -1
BITMAP
00
38
6C
0C
38
60
7C
00
ENDCHAR

STARTCHAR three
ENCODING 51
SWIDTH 875 0
DWIDTH 7 0
BBX 7 8 0 -1
BITMAP
00
38
4C
18
0C
6C
38
00
ENDCHAR

STARTCHAR four
ENCODING 52
SWIDTH 875 0
DWIDTH 7 0
BBX 7 8 0 -1
BITMAP
00
18
38
58
FC
18
18
00
ENDCHAR

STARTCHAR five
ENCODING 53
SWIDTH 875 0
DWIDTH 7 0
BBX 7 8 0 -1
BITMAP
00
7C
60
78
0C
6C
38
00
ENDCHAR

STARTCHAR six
ENCODING 54
SWIDTH 875 0
DWIDTH 7 0
BBX 7 8 0 -1
BITMAP
00
38
60
78
6C
6C
38
00
ENDCHAR

STARTCHAR seven
ENCODING 55
SWIDTH 875 0
DWIDTH 7 0
BBX 7 8 0 -1
BITMAP
00
7C
0C
18
18
30
30
00
ENDCHAR

STARTCHAR eight
ENCODING 56
SWIDTH 875 0
DWIDTH 7 0
BBX 7 8 0 -1
BITMAP
00
38
6C
38
6C
6C
38
00
ENDCHAR

STARTCHAR nine
ENCODING 57
SWIDTH 875 0
DWIDTH 7 0
BBX 7 8 0 -1
BITMAP
00
38
6C
6C
3C
0C
38
00
ENDCHAR

STARTCHAR colon
ENCODING 58
SWIDTH 875 0
DWIDTH 7 0
BBX 7 8 0 -1
BITMAP
00
00
30
30
00
30
30
00
ENDCHAR

STARTCHAR semicolon
ENCODING 59
SWIDTH 875 0
DWIDTH 7 0
BBX 7 8 0 -1
BITMAP
00
00
30
30
00
30
30
60
ENDCHAR

STARTCHAR less
ENCODING 60
SWIDTH 875 0
DWIDTH 7 0
BBX 7 8 0 -1
BITMAP
00
08
18
30
60
30
18
08
ENDCHAR

STARTCHAR equal
ENCODING 61
SWIDTH 875 0
DWIDTH 7 0
BBX 7 8 0 -1
BITMAP
00
00
78
78
00
78
78
00
ENDCHAR

STARTCHAR greater
ENCODING 62
SWIDTH 875 0
DWIDTH 7 0
BBX 7 8 0 -1
BITMAP
00
20
30
18
0C
18
30
20
ENDCHAR

STARTCHAR question
ENCODING 63
SWIDTH 875 0
DWIDTH 7 0
BBX 7 8 0 -1
BITMAP
00
38
6C
0C
38
30
00
30
ENDCHAR

STARTCHAR at
ENCODING 64
SWIDTH 875 0
DWIDTH 7 0
BBX 7 8 0 -1
BITMAP
00
38
64
6C
6C
60
3C
00
ENDCHAR

STARTCHAR A
ENCODING 65
SWIDTH 875 0
DWIDTH 7 0
BBX 7 8 0 -1
BITMAP
00
30
78
48
FC
CC
CC
00
ENDCHAR

STARTCHAR B
ENCODING 66
SWIDTH 875 0
DWIDTH 7 0
BBX 7 8 0 -1
BITMAP
00
78
6C
78
6C
6C
78
00
ENDCHAR

STARTCHAR C
ENCODING 67
SWIDTH 875 0
DWIDTH 7 0
BBX 7 8 0 -1
BITMAP
00
38
6C
60
60
6C
38
00
ENDCHAR

STARTCHAR D
ENCODING 68
SWIDTH 875 0
DWIDTH 7 0
BBX 7 8 0 -1
BITMAP
00
78
6C
6C
6C
6C
78
00
ENDCHAR

STARTCHAR E
ENCODING 69
SWIDTH 875 0
DWIDTH 7 0
BBX 7 8 0 -1
BITMAP
00
7C
60
78
60
60
7C
00
ENDCHAR

STARTCHAR F
ENCODING 70
SWIDTH 875 0
DWIDTH 7 0
BBX 7 8 0 -1
BITMAP
00
7C
60
78
60
60
60
00
ENDCHAR

STARTCHAR G
ENCODING 71
SWIDTH 875 0
DWIDTH 7 0
BBX 7 8 0 -1
BITMAP
00
38
6C
60
6C
6C
34
00
ENDCHAR

STARTCHAR H
ENCODING 72
SWIDTH 875 0
DWIDTH 7 0
BBX 7 8 0 -1
BITMAP
00
6C
6C
7C
6C
6C
6C
00
ENDCHAR

STARTCHAR I
ENCODING 73
SWIDTH 875 0
DWIDTH 7 0
BBX 7 8 0 -1
BITMAP
00
78
30
30
30
30
78
00
ENDCHAR

STARTCHAR J
ENCODING 74
SWIDTH 875 0
DWIDTH 7 0
BBX 7 8 0 -1
BITMAP
00
0C
0C
0C
6C
6C
38
00
ENDCHAR

STARTCHAR K
ENCODING 75
SWIDTH 875 0
DWIDTH 7 0
BBX 7 8 0 -1
BITMAP
00
CC
D8
F0
F0
D8
CC
00
ENDCHAR

STARTCHAR L
ENCODING 76
SWIDTH 875 0
DWIDTH 7 0
BBX 7 8 0 -1
BITMAP
00
60
60
60
60
60
7C
00
ENDCHAR

STARTCHAR M
ENCODING 77
SWIDTH 875 0
DWIDTH 7 0
BBX 7 8 0 -1
BITMAP
00
44
6C
7C
D6
C6
C6
00
ENDCHAR

STARTCHAR N
ENCODING 78
SWIDTH 875 0
DWIDTH 7 0
BBX 7 8 0 -1
BITMAP
00
CC
EC
FC
DC
DC
CC
00
ENDCHAR

STARTCHAR O
ENCODING 79
SWIDTH 875 0
DWIDTH 7 0
BBX 7 8 0 -1
BITMAP
00
38
6C
6C
6C
6C
38
00
ENDCHAR

STARTCHAR P
ENCODING 80
SWIDTH 875 0
DWIDTH 7 0
BBX 7 8 0 -1
BITMAP
00
78
6C
6C
78
60
60
00
ENDCHAR

STARTCHAR Q
ENCODING 81
SWIDTH 875 0
DWIDTH 7 0
BBX 7 8 0 -1
BITMAP
00
38
6C
6C
6C
7C
38
0C
ENDCHAR

STARTCHAR R
ENCODING 82
SWIDTH 875 0
DWIDTH 7 0
BBX 7 8 0 -1
BITMAP
00
78
6C
6C
78
6C
6C
00
ENDCHAR

STARTCHAR S
ENCODING 83
SWIDTH 875 0
DWIDTH 7 0
BBX 7 8 0 -1
BITMAP
00
38
64
78
3C
4C
38
00
ENDCHAR

STARTCHAR T
ENCODING 84
SWIDTH 875 0
DWIDTH 7 0
BBX 7 8 0 -1
BITMAP
00
FC
30
30
30
30
30
00
ENDCHAR

STARTCHAR U
ENCODING 85
SWIDTH 875 0
DWIDTH 7 0
BBX 7 8 0 -1
BITMAP
00
6C
6C
6C
6C
6C
38
00
ENDCHAR

STARTCHAR V
ENCODING 86
SWIDTH 875 0
DWIDTH 7 0
BBX 7 8 0 -1
BITMAP
00
6C
6C
6C
38
38
10
00
ENDCHAR

STARTCHAR W
ENCODING 87
SWIDTH 875 0
DWIDTH 7 0
BBX 7 8 0 -1
BITMAP
00
C6
D6
D6
7C
6C
28
00
ENDCHAR

STARTCHAR X
ENCODING 88
SWIDTH 875 0
DWIDTH 7 0
BBX 7 8 0 -1
BITMAP
00
6C
38
10
38
6C
6C
00
ENDCHAR

STARTCHAR Y
ENCODING 89
SWIDTH 875 0
DWIDTH 7 0
BBX 7 8 0 -1
BITMAP
00
CC
CC
78
30
30
30
00
ENDCHAR

STARTCHAR Z
ENCODING 90
SWIDTH 875 0
DWIDTH 7 0
BBX 7 8 0 -1
BITMAP
00
7C
0C
18
30
60
7C
00
ENDCHAR

STARTCHAR bracketleft
ENCODING 91
SWIDTH 875 0
DWIDTH 7 0
BBX 7 8 0 -1
BITMAP
3C
30
30
30
30
30
30
3C
ENDCHAR

STARTCHAR backslash
ENCODING 92
SWIDTH 875 0
DWIDTH 7 0
BBX 7 8 0 -1
BITMAP
60
60
30
30
18
18
0C
0C
ENDCHAR

STARTCHAR bracketright
ENCODING 93
SWIDTH 875 0
DWIDTH 7 0
BBX 7 8 0 -1
BITMAP
3C
0C
0C
0C
0C
0C
0C
3C
ENDCHAR

STARTCHAR asciicircum
ENCODING 94
SWIDTH 875 0
DWIDTH 7 0
BBX 7 8 0 -1
BITMAP
10
38
6C
00
00
00
00
00
ENDCHAR

STARTCHAR underscore
ENCODING 95
SWIDTH 875 0
DWIDTH 7 0
BBX 7 8 0 -1
BITMAP
00
00
00
00
00
00
FE
FE
ENDCHAR

STARTCHAR quoteleft
ENCODING 96
SWIDTH 875 0
DWIDTH 7 0
BBX 7 8 0 -1
BITMAP
30
30
18
00
00
00
00
00
ENDCHAR

STARTCHAR a
ENCODING 97
SWIDTH 875 0
DWIDTH 7 0
BBX 7 8 0 -1
BITMAP
00
00
38
0C
3C
6C
3C
00
ENDCHAR

STARTCHAR b
ENCODING 98
SWIDTH 875 0
DWIDTH 7 0
BBX 7 8 0 -1
BITMAP
00
60
78
6C
6C
6C
78
00
ENDCHAR

STARTCHAR c
ENCODING 99
SWIDTH 875 0
DWIDTH 7 0
BBX 7 8 0 -1
BITMAP
00
00
38
64
60
64
38
00
ENDCHAR

STARTCHAR d
ENCODING 100
SWIDTH 875 0
DWIDTH 7 0
BBX 7 8 0 -1
BITMAP
00
0C
3C
6C
6C
6C
3C
00
ENDCHAR

STARTCHAR e
ENCODING 101
SWIDTH 875 0
DWIDTH 7 0
BBX 7 8 0 -1
BITMAP
00
00
38
6C
7C
60
3C
00
ENDCHAR

STARTCHAR f
ENCODING 102
SWIDTH 875 0
DWIDTH 7 0
BBX 7 8 0 -1
BITMAP
00
1C
30
7C
30
30
30
00
ENDCHAR

STARTCHAR g
ENCODING 103
SWIDTH 875 0
DWIDTH 7 0
BBX 7 8 0 -1
BITMAP
00
00
3C
6C
6C
3C
0C
78
ENDCHAR

STARTCHAR h
ENCODING 104
SWIDTH 875 0
DWIDTH 7 0
BBX 7 8 0 -1
BITMAP
00
60
78
6C
6C
6C
6C
00
ENDCHAR

STARTCHAR i
ENCODING 105
SWIDTH 875 0
DWIDTH 7 0
BBX 7 8 0 -1
BITMAP
00
18
60
18
18
18
18
00
ENDCHAR

STARTCHAR j
ENCODING 106
SWIDTH 875 0
DWIDTH 7 0
BBX 7 8 0 -1
BITMAP
00
18
60
18
18
18
18
70
ENDCHAR

STARTCHAR k
ENCODING 107
SWIDTH 875 0
DWIDTH 7 0
BBX 7 8 0 -1
BITMAP
00
60
6C
6C
78
7C
6E
00
ENDCHAR

STARTCHAR l
ENCODING 108
SWIDTH 875 0
DWIDTH 7 0
BBX 7 8 0 -1
BITMAP
78
18
18
18
18
18
18
00
ENDCHAR

STARTCHAR m
ENCODING 109
SWIDTH 875 0
DWIDTH 7 0
BBX 7 8 0 -1
BITMAP
00
00
A8
FC
D4
D4
D4
00
ENDCHAR

STARTCHAR n
ENCODING 110
SWIDTH 875 0
DWIDTH 7 0
BBX 7 8 0 -1
BITMAP
00
00
78
6C
6C
6C
6C
00
ENDCHAR

STARTCHAR o
ENCODING 111
SWIDTH 875 0
DWIDTH 7 0
BBX 7 8 0 -1
BITMAP
00
00
38
6C
6C
6C
38
00
ENDCHAR

STARTCHAR p
ENCODING 112
SWIDTH 875 0
DWIDTH 7 0
BBX 7 8 0 -1
BITMAP
00
00
78
6C
6C
7C
68
60
ENDCHAR

STARTCHAR q
ENCODING 113
SWIDTH 875 0
DWIDTH 7 0
BBX 7 8 0 -1
BITMAP
00
00
3C
6C
6C
7C
2C
0C
ENDCHAR

STARTCHAR r
ENCODING 114
SWIDTH 875 0
DWIDTH 7 0
BBX 7 8 0 -1
BITMAP
00
00
6C
74
60
60
60
00
ENDCHAR

STARTCHAR s
ENCODING 115
SWIDTH 875 0
DWIDTH 7 0
BBX 7 8 0 -1
BITMAP
00
00
3C
60
38
0C
7C
00
ENDCHAR

STARTCHAR t
ENCODING 116
SWIDTH 875 0
DWIDTH 7 0
BBX 7 8 0 -1
BITMAP
00
30
7C
30
30
30
1C
00
ENDCHAR

STARTCHAR u
ENCODING 117
SWIDTH 875 0
DWIDTH 7 0
BBX 7 8 0 -1
BITMAP
00
00
6C
6C
6C
6C
3C
00
ENDCHAR

STARTCHAR v
ENCODING 118
SWIDTH 875 0
DWIDTH 7 0
BBX 7 8 0 -1
BITMAP
00
00
6C
6C
28
38
10
00
ENDCHAR

STARTCHAR w
ENCODING 119
SWIDTH 875 0
DWIDTH 7 0
BBX 7 8 0 -1
BITMAP
00
00
D4
D4
D4
FC
68
00
ENDCHAR

STARTCHAR x
ENCODING 120
SWIDTH 875 0
DWIDTH 7 0
BBX 7 8 0 -1
BITMAP
00
00
6C
38
10
38
6C
00
ENDCHAR

STARTCHAR y
ENCODING 121
SWIDTH 875 0
DWIDTH 7 0
BBX 7 8 0 -1
BITMAP
00
00
6C
6C
6C
3C
0C
78
ENDCHAR

STARTCHAR z
ENCODING 122
SWIDTH 875 0
DWIDTH 7 0
BBX 7 8 0 -1
BITMAP
00
00
7C
18
30
60
7C
00
ENDCHAR

STARTCHAR braceleft
ENCODING 123
SWIDTH 875 0
DWIDTH 7 0
BBX 7 8 0 -1
BITMAP
1C
30
30
60
30
30
30
1C
ENDCHAR

STARTCHAR bar
ENCODING 124
SWIDTH 875 0
DWIDTH 7 0
BBX 7 8 0 -1
BITMAP
30
30
30
30
30
30
30
30
ENDCHAR

STARTCHAR braceright
ENCODING 125
SWIDTH 875 0
DWIDTH 7 0
BBX 7 8 0 -1
BITMAP
70
18
18
0C
18
18
18
70
ENDCHAR

STARTCHAR asciitilde
ENCODING 126
SWIDTH 875 0
DWIDTH 7 0
BBX 7 8 0 -1
BITMAP
00
00
34
7C
58
00
00
00
ENDCHAR

STARTCHAR exclamdown
ENCODING 161
SWIDTH 875 0
DWIDTH 7 0
BBX 7 8 0 -1
BITMAP
00
00
30
00
30
30
30
30
ENDCHAR

STARTCHAR cent
ENCODING 162
SWIDTH 875 0
DWIDTH 7 0
BBX 7 8 0 -1
BITMAP
10
3C
64
60
64
38
10
00
ENDCHAR

STARTCHAR sterling
ENCODING 163
SWIDTH 875 0
DWIDTH 7 0
BBX 7 8 0 -1
BITMAP
38
6C
60
F0
60
6C
FC
00
ENDCHAR

STARTCHAR currency
ENCODING 164
SWIDTH 875 0
DWIDTH 7 0
BBX 7 8 0 -1
BITMAP
00
44
38
28
38
44
00
00
ENDCHAR

STARTCHAR yen
ENCODING 165
SWIDTH 875 0
DWIDTH 7 0
BBX 7 8 0 -1
BITMAP
CC
78
30
78
30
78
30
00
ENDCHAR

STARTCHAR brokenbar
ENCODING 166
SWIDTH 875 0
DWIDTH 7 0
BBX 7 8 0 -1
BITMAP
30
30
30
30
00
30
30
30
ENDCHAR

STARTCHAR section
ENCODING 167
SWIDTH 875 0
DWIDTH 7 0
BBX 7 8 0 -1
BITMAP
3C
60
78
4C
64
3C
0C
78
ENDCHAR

STARTCHAR dieresis
ENCODING 168
SWIDTH 875 0
DWIDTH 7 0
BBX 7 8 0 -1
BITMAP
6C
00
00
00
00
00
00
00
ENDCHAR

STARTCHAR copyright
ENCODING 169
SWIDTH 875 0
DWIDTH 7 0
BBX 7 8 0 -1
BITMAP
00
78
DC
EC
EC
DC
78
00
ENDCHAR

STARTCHAR ordfeminine
ENCODING 170
SWIDTH 875 0
DWIDTH 7 0
BBX 7 8 0 -1
BITMAP
30
18
28
00
38
00
00
00
ENDCHAR

STARTCHAR guillemotleft
ENCODING 171
SWIDTH 875 0
DWIDTH 7 0
BBX 7 8 0 -1
BITMAP
00
00
36
6C
D8
6C
36
00
ENDCHAR

STARTCHAR logicalnot
ENCODING 172
SWIDTH 875 0
DWIDTH 7 0
BBX 7 8 0 -1
BITMAP
00
00
00
7C
7C
04
00
00
ENDCHAR

STARTCHAR hyphen
ENCODING 173
SWIDTH 875 0
DWIDTH 7 0
BBX 7 8 0 -1
BITMAP
00
00
00
78
78
00
00
00
ENDCHAR

STARTCHAR registered
ENCODING 174
SWIDTH 875 0
DWIDTH 7 0
BBX 7 8 0 -1
BITMAP
00
78
CC
FC
EC
DC
78
00
ENDCHAR

STARTCHAR macron
ENCODING 175
SWIDTH 875 0
DWIDTH 7 0
BBX 7 8 0 -1
BITMAP
38
38
00
00
00
00
00
00
ENDCHAR

STARTCHAR degree
ENCODING 176
SWIDTH 875 0
DWIDTH 7 0
BBX 7 8 0 -1
BITMAP
00
00
38
28
38
00
00
00
ENDCHAR

STARTCHAR plusminus
ENCODING 177
SWIDTH 875 0
DWIDTH 7 0
BBX 7 8 0 -1
BITMAP
10
10
7C
10
10
00
7C
00
ENDCHAR

STARTCHAR twosuperior
ENCODING 178
SWIDTH 875 0
DWIDTH 7 0
BBX 7 8 0 -1
BITMAP
38
08
10
38
00
00
00
00
ENDCHAR

STARTCHAR threesuperior
ENCODING 179
SWIDTH 875 0
DWIDTH 7 0
BBX 7 8 0 -1
BITMAP
30
18
08
30
00
00
00
00
ENDCHAR

STARTCHAR acute
ENCODING 180
SWIDTH 875 0
DWIDTH 7 0
BBX 7 8 0 -1
BITMAP
18
30
00
00
00
00
00
00
ENDCHAR

STARTCHAR mu
ENCODING 181
SWIDTH 875 0
DWIDTH 7 0
BBX 7 8 0 -1
BITMAP
00
00
6C
6C
6C
6C
7C
60
ENDCHAR

STARTCHAR paragraph
ENCODING 182
SWIDTH 875 0
DWIDTH 7 0
BBX 7 8 0 -1
BITMAP
7E
F6
B6
F6
76
36
36
36
ENDCHAR

STARTCHAR periodcentered
ENCODING 183
SWIDTH 875 0
DWIDTH 7 0
BBX 7 8 0 -1
BITMAP
00
00
00
30
30
00
00
00
ENDCHAR

STARTCHAR cedilla
ENCODING 184
SWIDTH 875 0
DWIDTH 7 0
BBX 7 8 0 -1
BITMAP
00
00
00
00
00
00
10
30
ENDCHAR

STARTCHAR onesuperior
ENCODING 185
SWIDTH 875 0
DWIDTH 7 0
BBX 7 8 0 -1
BITMAP
30
10
10
38
00
00
00
00
ENDCHAR

STARTCHAR ordmasculine
ENCODING 186
SWIDTH 875 0
DWIDTH 7 0
BBX 7 8 0 -1
BITMAP
38
28
38
00
38
00
00
00
ENDCHAR

STARTCHAR guillemotright
ENCODING 187
SWIDTH 875 0
DWIDTH 7 0
BBX 7 8 0 -1
BITMAP
00
00
D8
6C
36
6C
D8
00
ENDCHAR

STARTCHAR onequarter
ENCODING 188
SWIDTH 875 0
DWIDTH 7 0
BBX 7 8 0 -1
BITMAP
60
24
28
74
2C
5C
04
00
ENDCHAR

STARTCHAR onehalf
ENCODING 189
SWIDTH 875 0
DWIDTH 7 0
BBX 7 8 0 -1
BITMAP
60
24
28
70
3C
44
08
1C
ENDCHAR

STARTCHAR threequarters
ENCODING 190
SWIDTH 875 0
DWIDTH 7 0
BBX 7 8 0 -1
BITMAP
60
34
18
74
2C
5C
04
00
ENDCHAR

STARTCHAR questiondown
ENCODING 191
SWIDTH 875 0
DWIDTH 7 0
BBX 7 8 0 -1
BITMAP
30
00
30
70
C0
D8
70
00
ENDCHAR

STARTCHAR Agrave
ENCODING 192
SWIDTH 875 0
DWIDTH 7 0
BBX 7 8 0 -1
BITMAP
20
10
30
78
48
FC
CC
00
ENDCHAR

STARTCHAR Aacute
ENCODING 193
SWIDTH 875 0
DWIDTH 7 0
BBX 7 8 0 -1
BITMAP
10
20
30
78
48
FC
CC
00
ENDCHAR

STARTCHAR Acircumflex
ENCODING 194
SWIDTH 875 0
DWIDTH 7 0
BBX 7 8 0 -1
BITMAP
10
28
30
78
48
FC
CC
00
ENDCHAR

STARTCHAR Atilde
ENCODING 195
SWIDTH 875 0
DWIDTH 7 0
BBX 7 8 0 -1
BITMAP
34
58
30
78
48
FC
CC
00
ENDCHAR

STARTCHAR Adieresis
ENCODING 196
SWIDTH 875 0
DWIDTH 7 0
BBX 7 8 0 -1
BITMAP
6C
00
30
78
48
FC
CC
00
ENDCHAR

STARTCHAR Aring
ENCODING 197
SWIDTH 875 0
DWIDTH 7 0
BBX 7 8 0 -1
BITMAP
30
48
30
78
48
FC
CC
00
ENDCHAR

STARTCHAR AE
ENCODING 198
SWIDTH 875 0
DWIDTH 7 0
BBX 7 8 0 -1
BITMAP
3E
78
D8
DC
F8
D8
DE
00
ENDCHAR

STARTCHAR Ccedilla
ENCODING 199
SWIDTH 875 0
DWIDTH 7 0
BBX 7 8 0 -1
BITMAP
00
38
6C
60
60
6C
38
30
ENDCHAR

STARTCHAR Egrave
ENCODING 200
SWIDTH 875 0
DWIDTH 7 0
BBX 7 8 0 -1
BITMAP
20
10
7C
60
78
60
7C
00
ENDCHAR

STARTCHAR Eacute
ENCODING 201
SWIDTH 875 0
DWIDTH 7 0
BBX 7 8 0 -1
BITMAP
08
10
7C
60
78
60
7C
00
ENDCHAR

STARTCHAR Ecircumflex
ENCODING 202
SWIDTH 875 0
DWIDTH 7 0
BBX 7 8 0 -1
BITMAP
10
28
7C
60
78
60
7C
00
ENDCHAR

STARTCHAR Edieresis
ENCODING 203
SWIDTH 875 0
DWIDTH 7 0
BBX 7 8 0 -1
BITMAP
6C
00
7C
60
78
60
7C
00
ENDCHAR

STARTCHAR Igrave
ENCODING 204
SWIDTH 875 0
DWIDTH 7 0
BBX 7 8 0 -1
BITMAP
20
10
78
30
30
30
78
00
ENDCHAR

STARTCHAR Iacute
ENCODING 205
SWIDTH 875 0
DWIDTH 7 0
BBX 7 8 0 -1
BITMAP
10
20
78
30
30
30
78
00
ENDCHAR

STARTCHAR Icircumflex
ENCODING 206
SWIDTH 875 0
DWIDTH 7 0
BBX 7 8 0 -1
BITMAP
10
28
78
30
30
30
78
00
ENDCHAR

STARTCHAR Idieresis
ENCODING 207
SWIDTH 875 0
DWIDTH 7 0
BBX 7 8 0 -1
BITMAP
6C
00
78
30
30
30
78
00
ENDCHAR

STARTCHAR Eth
ENCODING 208
SWIDTH 875 0
DWIDTH 7 0
BBX 7 8 0 -1
BITMAP
00
78
6C
EC
6C
6C
78
00
ENDCHAR

STARTCHAR Ntilde
ENCODING 209
SWIDTH 875 0
DWIDTH 7 0
BBX 7 8 0 -1
BITMAP
34
58
CC
EC
FC
DC
CC
00
ENDCHAR

STARTCHAR Ograve
ENCODING 210
SWIDTH 875 0
DWIDTH 7 0
BBX 7 8 0 -1
BITMAP
20
10
38
6C
6C
6C
38
00
ENDCHAR

STARTCHAR Oacute
ENCODING 211
SWIDTH 875 0
DWIDTH 7 0
BBX 7 8 0 -1
BITMAP
08
10
38
6C
6C
6C
38
00
ENDCHAR

STARTCHAR Ocircumflex
ENCODING 212
SWIDTH 875 0
DWIDTH 7 0
BBX 7 8 0 -1
BITMAP
10
28
38
6C
6C
6C
38
00
ENDCHAR

STARTCHAR Otilde
ENCODING 213
SWIDTH 875 0
DWIDTH 7 0
BBX 7 8 0 -1
BITMAP
34
58
38
6C
6C
6C
38
00
ENDCHAR

STARTCHAR Odieresis
ENCODING 214
SWIDTH 875 0
DWIDTH 7 0
BBX 7 8 0 -1
BITMAP
6C
00
38
6C
6C
6C
38
00
ENDCHAR

STARTCHAR multiply
ENCODING 215
SWIDTH 875 0
DWIDTH 7 0
BBX 7 8 0 -1
BITMAP
00
00
44
6C
38
6C
44
00
ENDCHAR

STARTCHAR Oslash
ENCODING 216
SWIDTH 875 0
DWIDTH 7 0
BBX 7 8 0 -1
BITMAP
00
00
3A
6C
7C
6C
B8
00
ENDCHAR

STARTCHAR Ugrave
ENCODING 217
SWIDTH 875 0
DWIDTH 7 0
BBX 7 8 0 -1
BITMAP
20
10
6C
6C
6C
6C
38
00
ENDCHAR

STARTCHAR Uacute
ENCODING 218
SWIDTH 875 0
DWIDTH 7 0
BBX 7 8 0 -1
BITMAP
08
10
6C
6C
6C
6C
38
00
ENDCHAR

STARTCHAR Ucircumflex
ENCODING 219
SWIDTH 875 0
DWIDTH 7 0
BBX 7 8 0 -1
BITMAP
10
28
6C
6C
6C
6C
38
00
ENDCHAR

STARTCHAR Udieresis
ENCODING 220
SWIDTH 875 0
DWIDTH 7 0
BBX 7 8 0 -1
BITMAP
6C
00
6C
6C
6C
6C
38
00
ENDCHAR

STARTCHAR Yacute
ENCODING 221
SWIDTH 875 0
DWIDTH 7 0
BBX 7 8 0 -1
BITMAP
10
20
84
CC
78
30
30
00
ENDCHAR

STARTCHAR Thorn
ENCODING 222
SWIDTH 875 0
DWIDTH 7 0
BBX 7 8 0 -1
BITMAP
00
60
78
6C
78
60
60
00
ENDCHAR

STARTCHAR germandbls
ENCODING 223
SWIDTH 875 0
DWIDTH 7 0
BBX 7 8 0 -1
BITMAP
00
38
6C
78
6C
6C
68
00
ENDCHAR

STARTCHAR agrave
ENCODING 224
SWIDTH 875 0
DWIDTH 7 0
BBX 7 8 0 -1
BITMAP
20
10
38
0C
3C
6C
3C
00
ENDCHAR

STARTCHAR aacute
ENCODING 225
SWIDTH 875 0
DWIDTH 7 0
BBX 7 8 0 -1
BITMAP
08
10
38
0C
3C
6C
3C
00
ENDCHAR

STARTCHAR acircumflex
ENCODING 226
SWIDTH 875 0
DWIDTH 7 0
BBX 7 8 0 -1
BITMAP
10
28
38
0C
3C
6C
3C
00
ENDCHAR

STARTCHAR atilde
ENCODING 227
SWIDTH 875 0
DWIDTH 7 0
BBX 7 8 0 -1
BITMAP
34
58
38
0C
3C
6C
3C
00
ENDCHAR

STARTCHAR adieresis
ENCODING 228
SWIDTH 875 0
DWIDTH 7 0
BBX 7 8 0 -1
BITMAP
6C
00
38
0C
3C
6C
3C
00
ENDCHAR

STARTCHAR aring
ENCODING 229
SWIDTH 875 0
DWIDTH 7 0
BBX 7 8 0 -1
BITMAP
18
00
38
0C
3C
6C
3C
00
ENDCHAR

STARTCHAR ae
ENCODING 230
SWIDTH 875 0
DWIDTH 7 0
BBX 7 8 0 -1
BITMAP
00
00
7C
14
7C
50
6C
00
ENDCHAR

STARTCHAR ccedilla
ENCODING 231
SWIDTH 875 0
DWIDTH 7 0
BBX 7 8 0 -1
BITMAP
00
00
38
6C
60
6C
38
30
ENDCHAR

STARTCHAR egrave
ENCODING 232
SWIDTH 875 0
DWIDTH 7 0
BBX 7 8 0 -1
BITMAP
20
10
38
6C
7C
60
3C
00
ENDCHAR

STARTCHAR eacute
ENCODING 233
SWIDTH 875 0
DWIDTH 7 0
BBX 7 8 0 -1
BITMAP
08
10
38
6C
7C
60
3C
00
ENDCHAR

STARTCHAR ecircumflex
ENCODING 234
SWIDTH 875 0
DWIDTH 7 0
BBX 7 8 0 -1
BITMAP
10
28
38
6C
7C
60
3C
00
ENDCHAR

STARTCHAR edieresis
ENCODING 235
SWIDTH 875 0
DWIDTH 7 0
BBX 7 8 0 -1
BITMAP
6C
00
38
6C
7C
60
3C
00
ENDCHAR

STARTCHAR igrave
ENCODING 236
SWIDTH 875 0
DWIDTH 7 0
BBX 7 8 0 -1
BITMAP
20
10
00
60
18
18
18
00
ENDCHAR

STARTCHAR iacute
ENCODING 237
SWIDTH 875 0
DWIDTH 7 0
BBX 7 8 0 -1
BITMAP
08
10
00
60
18
18
18
00
ENDCHAR

STARTCHAR icircumflex
ENCODING 238
SWIDTH 875 0
DWIDTH 7 0
BBX 7 8 0 -1
BITMAP
10
28
00
60
18
18
18
00
ENDCHAR

STARTCHAR idieresis
ENCODING 239
SWIDTH 875 0
DWIDTH 7 0
BBX 7 8 0 -1
BITMAP
00
6C
00
60
18
18
18
00
ENDCHAR

STARTCHAR eth
ENCODING 240
SWIDTH 875 0
DWIDTH 7 0
BBX 7 8 0 -1
BITMAP
00
28
58
3C
6C
6C
38
00
ENDCHAR

STARTCHAR ntilde
ENCODING 241
SWIDTH 875 0
DWIDTH 7 0
BBX 7 8 0 -1
BITMAP
34
58
00
68
7C
6C
6C
00
ENDCHAR

STARTCHAR ograve
ENCODING 242
SWIDTH 875 0
DWIDTH 7 0
BBX 7 8 0 -1
BITMAP
20
10
00
38
6C
6C
38
00
ENDCHAR

STARTCHAR oacute
ENCODING 243
SWIDTH 875 0
DWIDTH 7 0
BBX 7 8 0 -1
BITMAP
08
10
00
38
6C
6C
38
00
ENDCHAR

STARTCHAR ocircumflex
ENCODING 244
SWIDTH 875 0
DWIDTH 7 0
BBX 7 8 0 -1
BITMAP
10
28
00
38
6C
6C
38
00
ENDCHAR

STARTCHAR otilde
ENCODING 245
SWIDTH 875 0
DWIDTH 7 0
BBX 7 8 0 -1
BITMAP
34
58
00
38
6C
6C
38
00
ENDCHAR

STARTCHAR odieresis
ENCODING 246
SWIDTH 875 0
DWIDTH 7 0
BBX 7 8 0 -1
BITMAP
00
6C
00
38
6C
6C
38
00
ENDCHAR

STARTCHAR divide
ENCODING 247
SWIDTH 875 0
DWIDTH 7 0
BBX 7 8 0 -1
BITMAP
00
00
30
00
FC
00
30
00
ENDCHAR

STARTCHAR oslash
ENCODING 248
SWIDTH 875 0
DWIDTH 7 0
BBX 7 8 0 -1
BITMAP
00
00
00
3A
7C
6C
B8
00
ENDCHAR

STARTCHAR ugrave
ENCODING 249
SWIDTH 875 0
DWIDTH 7 0
BBX 7 8 0 -1
BITMAP
20
10
00
6C
6C
7C
2C
00
ENDCHAR

STARTCHAR uacute
ENCODING 250
SWIDTH 875 0
DWIDTH 7 0
BBX 7 8 0 -1
BITMAP
08
10
00
6C
6C
7C
2C
00
ENDCHAR

STARTCHAR ucircumflex
ENCODING 251
SWIDTH 875 0
DWIDTH 7 0
BBX 7 8 0 -1
BITMAP
10
28
00
6C
6C
7C
2C
00
ENDCHAR

STARTCHAR udieresis
ENCODING 252
SWIDTH 875 0
DWIDTH 7 0
BBX 7 8 0 -1
BITMAP
00
6C
00
6C
6C
7C
2C
00
ENDCHAR

STARTCHAR yacute
ENCODING 253
SWIDTH 875 0
DWIDTH 7 0
BBX 7 8 0 -1
BITMAP
08
10
00
6C
6C
3C
0C
38
ENDCHAR

STARTCHAR thorn
ENCODING 254
SWIDTH 875 0
DWIDTH 7 0
BBX 7 8 0 -1
BITMAP
00
60
78
6C
6C
78
60
60
ENDCHAR

STARTCHAR ydieresis
ENCODING 255
SWIDTH 875 0
DWIDTH 7 0
BBX 7 8 0 -1
BITMAP
00
6C
00
6C
6C
3C
0C
38
ENDCHAR
ENDFONT
